HIERARCHY
ROOT joint_Root
{
	OFFSET 0.0 0.0 0.0
	CHANNELS 6 Xposition Yposition Zposition Zrotation Xrotation Yrotation 
	JOINT Hips
	{
		OFFSET -17.1583 93.1646 452.98
		CHANNELS 6 Xposition Yposition Zposition Zrotation Xrotation Yrotation 
		JOINT Spine
		{
			OFFSET 15.7357 0.0 0.0
			CHANNELS 6 Xposition Yposition Zposition Zrotation Xrotation Yrotation 
			JOINT Chest
			{
				OFFSET 8.98455 -0.406207 0.0
				CHANNELS 6 Xposition Yposition Zposition Zrotation Xrotation Yrotation 
				JOINT Neck
				{
					OFFSET 16.3773 0.0 0.0
					CHANNELS 6 Xposition Yposition Zposition Zrotation Xrotation Yrotation 
					JOINT Head
					{
						OFFSET 6.45672 0.0 0.0
						CHANNELS 6 Xposition Yposition Zposition Zrotation Xrotation Yrotation 
						End Site
						{
							OFFSET 0.0 0.0 0.0
						}
					}
				}
				JOINT Shoulder_L
				{
					OFFSET 12.9942 -0.242716 4.98039
					CHANNELS 6 Xposition Yposition Zposition Zrotation Xrotation Yrotation 
					JOINT UpperArm_L
					{
						OFFSET 5.34809 0.0 0.0
						CHANNELS 6 Xposition Yposition Zposition Zrotation Xrotation Yrotation 
						JOINT LowerArm_L
						{
							OFFSET 24.3286 1.87007e-05 0.0
							CHANNELS 6 Xposition Yposition Zposition Zrotation Xrotation Yrotation 
							JOINT Hand_L
							{
								OFFSET 22.2916 0.0 0.0
								CHANNELS 6 Xposition Yposition Zposition Zrotation Xrotation Yrotation 
								End Site
								{
									OFFSET 0.0 0.0 0.0
								}
							}
						}
					}
				}
				JOINT Shoulder_R
				{
					OFFSET 12.9945 -0.242716 -4.98039
					CHANNELS 6 Xposition Yposition Zposition Zrotation Xrotation Yrotation 
					JOINT UpperArm_R
					{
						OFFSET -5.34813 0.0 0.0
						CHANNELS 6 Xposition Yposition Zposition Zrotation Xrotation Yrotation 
						JOINT LowerArm_R
						{
							OFFSET -24.3289 0.000322201 0.0
							CHANNELS 6 Xposition Yposition Zposition Zrotation Xrotation Yrotation 
							JOINT Hand_R
							{
								OFFSET -22.2915 -0.000108084 0.0
								CHANNELS 6 Xposition Yposition Zposition Zrotation Xrotation Yrotation 
								End Site
								{
									OFFSET 0.0 0.0 0.0
								}
							}
						}
					}
				}
			}
		}
		JOINT UpperLeg_L
		{
			OFFSET -2.19248 -6.46944 0.0
			CHANNELS 6 Xposition Yposition Zposition Zrotation Xrotation Yrotation 
			JOINT LowerLeg_L
			{
				OFFSET 39.0811 0.0 -1.23785e-05
				CHANNELS 6 Xposition Yposition Zposition Zrotation Xrotation Yrotation 
				JOINT Foot_L
				{
					OFFSET 40.9854 0.0 -1.26872e-05
					CHANNELS 6 Xposition Yposition Zposition Zrotation Xrotation Yrotation 
					JOINT Toes_L
					{
						OFFSET 11.7543 0.0 0.0
						CHANNELS 6 Xposition Yposition Zposition Zrotation Xrotation Yrotation 
						End Site
						{
							OFFSET 0.0 0.0 0.0
						}
					}
				}
			}
		}
		JOINT UpperLeg_R
		{
			OFFSET -2.19251 6.46944 0.0
			CHANNELS 6 Xposition Yposition Zposition Zrotation Xrotation Yrotation 
			JOINT LowerLeg_R
			{
				OFFSET -39.0811 -0.00228153 -0.0401928
				CHANNELS 6 Xposition Yposition Zposition Zrotation Xrotation Yrotation 
				JOINT Foot_R
				{
					OFFSET -40.9854 0.0 0.0
					CHANNELS 6 Xposition Yposition Zposition Zrotation Xrotation Yrotation 
					JOINT Toes_R
					{
						OFFSET -11.7543 0.0 0.0
						CHANNELS 6 Xposition Yposition Zposition Zrotation Xrotation Yrotation 
						End Site
						{
							OFFSET 0.0 0.0 0.0
						}
					}
				}
			}
		}
	}
}
MOTION
Frames:	4
Frame Time:	0.0333333
0.000000 0.000000 0.000000 0.000000 0.000000 -0.000000 -2.589710 91.586300 0.220465 83.587600 2.079970 5.488330 15.735700 0.000005 -0.000001 68.623900 87.095200 -65.290000 8.984550 -0.406207 -0.000000 -2.278130 -2.408820 6.620180 16.377300 -0.000001 -0.000001 12.023100 4.474350 4.195650 6.456720 -0.000001 -0.000000 6.166140 7.977900 5.408850 12.994200 -0.242716 4.980390 -92.478800 7.191380 -70.923800 5.348090 -0.000007 -0.000001 -70.918800 -10.051200 2.436880 24.328600 0.000019 0.000005 32.480600 -28.378900 -126.746000 22.291600 -0.000001 0.000005 57.726300 4.335360 19.245300 12.994500 -0.242716 -4.980390 87.840500 6.302940 -71.043700 -5.348130 -0.000001 -0.000004 -65.615400 3.214150 -2.363250 -24.328900 0.000322 -0.000009 4.380460 -3.731750 -130.351000 -22.291500 -0.000108 -0.000004 62.717000 5.393990 -2.743020 -2.192480 -6.469440 -0.000000 -171.879000 1.339960 -3.516890 39.081100 -0.000007 -0.000012 0.453676 -0.774053 30.376000 40.985400 -0.000006 -0.000013 1.649680 8.010770 -77.551400 11.754300 -0.000000 0.000003 0.000225 0.163741 -9.935740 -2.192510 6.469440 -0.000001 -170.366000 7.460270 -175.423000 -39.081100 -0.002282 -0.040193 0.150944 -0.480679 17.072000 -40.985400 0.000008 0.000006 4.513130 -0.194092 -72.458000 -11.754300 -0.000006 -0.000006 -0.011224 0.280232 -5.185690
0.000000 0.000000 0.000000 0.000000 0.000000 -0.000000 -2.561630 91.597200 0.220858 83.583500 2.004510 5.409140 15.735700 0.000005 -0.000001 69.399500 87.086000 -66.080400 8.984550 -0.406207 -0.000000 -2.234960 -2.339400 6.592790 16.377300 -0.000001 -0.000001 11.793200 4.419330 4.226650 6.456720 -0.000001 -0.000000 5.992080 7.851520 5.439860 12.994200 -0.242716 4.980390 -92.541000 7.327250 -70.813800 5.348090 -0.000007 -0.000001 -70.427400 -8.605680 2.973260 24.328600 0.000019 0.000005 39.659200 -33.585900 -123.714000 22.291600 -0.000001 0.000005 60.703100 4.610360 14.741100 12.994500 -0.242716 -4.980390 87.810900 6.369840 -70.988900 -5.348130 -0.000001 -0.000004 -65.330300 3.783700 -1.671280 -24.328900 0.000322 -0.000009 9.325460 -7.890360 -129.894000 -22.291500 -0.000108 -0.000004 62.695500 5.508430 -6.882120 -2.192480 -6.469440 -0.000000 -171.898000 1.342540 -3.547240 39.081100 -0.000007 -0.000012 0.450082 -0.769540 30.323400 40.985400 -0.000006 -0.000013 1.635650 7.914490 -77.572300 11.754300 -0.000000 0.000003 0.000275 0.162864 -9.971380 -2.192510 6.469440 -0.000001 -170.385000 7.459200 -175.462000 -39.081100 -0.002282 -0.040193 0.149537 -0.478081 17.005200 -40.985400 0.000008 0.000006 4.510850 -0.095375 -72.427500 -11.754300 -0.000006 -0.000006 -0.011250 0.280419 -5.178040
0.000000 0.000000 0.000000 0.000000 0.000000 -0.000000 -2.555510 91.602300 0.251660 83.553300 1.962630 5.369270 15.735700 0.000005 -0.000001 70.048900 87.064600 -66.714500 8.984550 -0.406207 -0.000000 -2.172810 -2.291580 6.625400 16.377300 -0.000001 -0.000001 11.760400 4.400540 4.104270 6.456720 -0.000001 -0.000000 5.726530 7.707480 5.402810 12.994200 -0.242716 4.980390 -92.583700 7.402440 -70.697200 5.348090 -0.000007 -0.000001 -70.081700 -7.419670 3.173680 24.328600 0.000019 0.000005 46.927900 -38.466200 -120.179000 22.291600 -0.000001 0.000005 64.140300 4.801910 11.284800 12.994500 -0.242716 -4.980390 87.751700 6.521370 -70.930300 -5.348130 -0.000001 -0.000004 -64.733600 5.006780 -1.069440 -24.328900 0.000322 -0.000009 14.581100 -12.545700 -129.862000 -22.291500 -0.000108 -0.000004 62.782200 5.618190 -12.506800 -2.192480 -6.469440 -0.000000 -171.884000 1.339560 -3.533190 39.081100 -0.000007 -0.000012 0.453846 -0.777128 30.286400 40.985400 -0.000006 -0.000013 1.638320 7.876830 -77.564700 11.754300 -0.000000 0.000003 0.000346 0.161580 -10.023500 -2.192510 6.469440 -0.000001 -170.354000 7.414180 -175.415000 -39.081100 -0.002282 -0.040193 0.146976 -0.473165 16.888100 -40.985400 0.000008 0.000006 4.506070 -0.093661 -72.389300 -11.754300 -0.000006 -0.000006 -0.011145 0.279670 -5.208700
0.000000 0.000000 0.000000 0.000000 0.000000 -0.000000 -2.533800 91.601200 0.261591 83.576600 1.926340 5.271830 15.735700 0.000005 -0.000001 70.166300 87.074700 -66.828700 8.984550 -0.406207 -0.000000 -2.188160 -2.274140 6.632030 16.377300 -0.000001 -0.000001 11.831000 4.411560 3.995130 6.456720 -0.000001 -0.000000 5.553130 7.638560 5.288390 12.994200 -0.242716 4.980390 -92.601900 7.411660 -70.593800 5.348090 -0.000007 -0.000001 -69.849400 -6.473410 3.123080 24.328600 0.000019 0.000005 52.137100 -41.980100 -117.475000 22.291600 -0.000001 0.000005 66.338800 4.917670 9.024540 12.994500 -0.242716 -4.980390 87.724700 6.565040 -70.836600 -5.348130 -0.000001 -0.000004 -64.088400 6.653130 -0.746947 -24.328900 0.000322 -0.000009 18.221900 -16.187800 -130.258000 -22.291500 -0.000108 -0.000004 62.478100 5.676300 -18.576500 -2.192480 -6.469440 -0.000000 -171.923000 1.281030 -3.598840 39.081100 -0.000007 -0.000012 0.452594 -0.775531 30.268700 40.985400 -0.000006 -0.000013 1.645420 7.832020 -77.556700 11.754300 -0.000000 0.000003 0.000415 0.160317 -10.074800 -2.192510 6.469440 -0.000001 -170.371000 7.309390 -175.522000 -39.081100 -0.002282 -0.040193 0.148478 -0.476650 16.937000 -40.985400 0.000008 0.000006 4.490520 -0.095078 -72.427700 -11.754300 -0.000006 -0.000006 -0.011056 0.279035 -5.234710
